<svg width="220" height="118" viewBox="0 0 220 118" fill="none" xmlns="http://www.w3.org/2000/svg">
<g filter="url(#filter0_f_168_71)">
<rect x="35" y="35" width="150" height="48" rx="24" fill="url(#paint0_linear_168_71)" fill-opacity="0.5"/>
<path d="M79.88 63.192C79.072 63.192 78.38 63.004 77.804 62.628C77.228 62.244 76.788 61.72 76.484 61.056C76.18 60.384 76.028 59.616 76.028 58.752C76.028 57.896 76.18 57.132 76.484 56.46C76.796 55.788 77.244 55.26 77.828 54.876C78.412 54.484 79.112 54.288 79.928 54.288C80.624 54.288 81.212 54.412 81.692 54.66C82.18 54.908 82.564 55.248 82.844 55.68C83.132 56.112 83.332 56.604 83.444 57.156L82.088 57.228C81.992 56.708 81.776 56.288 81.44 55.968C81.104 55.64 80.6 55.476 79.928 55.476C79.336 55.476 78.852 55.624 78.476 55.92C78.1 56.216 77.82 56.612 77.636 57.108C77.46 57.604 77.372 58.152 77.372 58.752C77.372 59.376 77.46 59.932 77.636 60.42C77.82 60.908 78.1 61.296 78.476 61.584C78.86 61.864 79.348 62.004 79.94 62.004C80.404 62.004 80.804 61.904 81.14 61.704C81.476 61.504 81.736 61.232 81.92 60.888C82.112 60.544 82.216 60.164 82.232 59.748H79.952V58.656H83.468V63H82.58L82.496 61.08L82.664 61.224C82.576 61.608 82.396 61.948 82.124 62.244C81.852 62.54 81.52 62.772 81.128 62.94C80.744 63.108 80.328 63.192 79.88 63.192ZM87.6999 63.144C87.0759 63.144 86.5359 63.008 86.0799 62.736C85.6319 62.464 85.2839 62.076 85.0359 61.572C84.7959 61.068 84.6759 60.48 84.6759 59.808C84.6759 59.136 84.7959 58.552 85.0359 58.056C85.2839 57.552 85.6319 57.164 86.0799 56.892C86.5279 56.612 87.0559 56.472 87.6639 56.472C88.2399 56.472 88.7479 56.608 89.1879 56.88C89.6279 57.144 89.9679 57.528 90.2079 58.032C90.4559 58.536 90.5799 59.144 90.5799 59.856V60.18H85.9959C86.0279 60.804 86.1919 61.272 86.4879 61.584C86.7919 61.896 87.1999 62.052 87.7119 62.052C88.0879 62.052 88.3999 61.964 88.6479 61.788C88.8959 61.612 89.0679 61.376 89.1639 61.08L90.4839 61.164C90.3159 61.756 89.9839 62.236 89.4879 62.604C88.9999 62.964 88.4039 63.144 87.6999 63.144ZM85.9959 59.22H89.2359C89.1959 58.652 89.0319 58.232 88.7439 57.96C88.4639 57.688 88.1039 57.552 87.6639 57.552C87.2079 57.552 86.8319 57.696 86.5359 57.984C86.2479 58.264 86.0679 58.676 85.9959 59.22ZM94.0824 63C93.4744 63 93.0264 62.86 92.7384 62.58C92.4504 62.3 92.3064 61.864 92.3064 61.272V55.116H93.5784V61.176C93.5784 61.472 93.6424 61.676 93.7704 61.788C93.8984 61.9 94.0944 61.956 94.3584 61.956H95.2704V63H94.0824ZM91.3344 57.66V56.616H95.2704V57.66H91.3344ZM99.4742 63V56.616H100.746V63H99.4742ZM99.4502 55.692V54.42H100.77V55.692H99.4502ZM102.65 63V56.616H103.814L103.862 58.32L103.706 58.236C103.778 57.82 103.914 57.484 104.114 57.228C104.314 56.972 104.558 56.784 104.846 56.664C105.134 56.536 105.446 56.472 105.782 56.472C106.262 56.472 106.658 56.58 106.97 56.796C107.29 57.004 107.53 57.292 107.69 57.66C107.858 58.02 107.942 58.432 107.942 58.896V63H106.67V59.28C106.67 58.904 106.63 58.588 106.55 58.332C106.47 58.076 106.338 57.88 106.154 57.744C105.97 57.608 105.73 57.54 105.434 57.54C104.986 57.54 104.622 57.688 104.342 57.984C104.062 58.28 103.922 58.712 103.922 59.28V63H102.65ZM115.106 63C114.498 63 114.05 62.86 113.762 62.58C113.474 62.3 113.33 61.864 113.33 61.272V55.116H114.602V61.176C114.602 61.472 114.666 61.676 114.794 61.788C114.922 61.9 115.118 61.956 115.382 61.956H116.294V63H115.106ZM112.358 57.66V56.616H116.294V57.66H112.358ZM120.032 63.144C119.424 63.144 118.892 63.008 118.436 62.736C117.98 62.464 117.628 62.076 117.38 61.572C117.132 61.068 117.008 60.48 117.008 59.808C117.008 59.128 117.132 58.54 117.38 58.044C117.628 57.548 117.98 57.164 118.436 56.892C118.892 56.612 119.424 56.472 120.032 56.472C120.64 56.472 121.172 56.612 121.628 56.892C122.084 57.164 122.436 57.548 122.684 58.044C122.932 58.54 123.056 59.128 123.056 59.808C123.056 60.48 122.932 61.068 122.684 61.572C122.436 62.076 122.084 62.464 121.628 62.736C121.172 63.008 120.64 63.144 120.032 63.144ZM120.032 62.04C120.576 62.04 120.996 61.844 121.292 61.452C121.588 61.052 121.736 60.504 121.736 59.808C121.736 59.112 121.588 58.568 121.292 58.176C120.996 57.776 120.576 57.576 120.032 57.576C119.496 57.576 119.076 57.776 118.772 58.176C118.476 58.568 118.328 59.112 118.328 59.808C118.328 60.504 118.476 61.052 118.772 61.452C119.076 61.844 119.496 62.04 120.032 62.04ZM126.441 63.144C125.801 63.144 125.289 62.932 124.905 62.508C124.529 62.076 124.341 61.48 124.341 60.72V56.616H125.613V60.396C125.613 60.972 125.713 61.396 125.913 61.668C126.113 61.94 126.417 62.076 126.825 62.076C127.289 62.076 127.649 61.928 127.905 61.632C128.169 61.328 128.301 60.904 128.301 60.36V56.616H129.573V63H128.385L128.361 61.332L128.541 61.404C128.429 61.964 128.193 62.396 127.833 62.7C127.473 62.996 127.009 63.144 126.441 63.144ZM133.883 63.144C133.275 63.144 132.743 63.008 132.287 62.736C131.831 62.464 131.479 62.076 131.231 61.572C130.983 61.068 130.859 60.48 130.859 59.808C130.859 59.136 130.983 58.552 131.231 58.056C131.479 57.552 131.831 57.164 132.287 56.892C132.743 56.612 133.275 56.472 133.883 56.472C134.403 56.472 134.863 56.564 135.263 56.748C135.671 56.924 135.999 57.184 136.247 57.528C136.503 57.872 136.667 58.292 136.739 58.788L135.407 58.86C135.343 58.444 135.175 58.128 134.903 57.912C134.631 57.688 134.291 57.576 133.883 57.576C133.347 57.576 132.927 57.776 132.623 58.176C132.327 58.568 132.179 59.112 132.179 59.808C132.179 60.504 132.327 61.052 132.623 61.452C132.927 61.844 133.347 62.04 133.883 62.04C134.291 62.04 134.631 61.928 134.903 61.704C135.175 61.472 135.343 61.124 135.407 60.66L136.739 60.732C136.667 61.22 136.503 61.644 136.247 62.004C135.999 62.364 135.671 62.644 135.263 62.844C134.863 63.044 134.403 63.144 133.883 63.144ZM137.9 63V54.48H139.172V58.056L139.016 58.032C139.088 57.672 139.22 57.38 139.412 57.156C139.604 56.924 139.84 56.752 140.12 56.64C140.4 56.528 140.708 56.472 141.044 56.472C141.508 56.472 141.9 56.576 142.22 56.784C142.54 56.984 142.78 57.268 142.94 57.636C143.108 58.004 143.192 58.424 143.192 58.896V63H141.92V59.232C141.92 58.656 141.82 58.232 141.62 57.96C141.428 57.68 141.124 57.54 140.708 57.54C140.244 57.54 139.872 57.688 139.592 57.984C139.312 58.272 139.172 58.696 139.172 59.256V63H137.9Z" fill="url(#paint1_linear_168_71)"/>
</g>
<rect x="34.5" y="23.5" width="151" height="54" rx="27" stroke="url(#paint2_linear_168_71)"/>
<rect x="36" y="25" width="148" height="51" rx="25.5" fill="url(#paint3_linear_168_71)"/>
<rect x="36" y="25" width="148" height="51" rx="25.5" stroke="url(#paint4_linear_168_71)" stroke-width="2"/>
<path d="M69.84 56.256C68.7627 56.256 67.84 56.0053 67.072 55.504C66.304 54.992 65.7173 54.2933 65.312 53.408C64.9067 52.512 64.704 51.488 64.704 50.336C64.704 49.1947 64.9067 48.176 65.312 47.28C65.728 46.384 66.3253 45.68 67.104 45.168C67.8827 44.6453 68.816 44.384 69.904 44.384C70.832 44.384 71.616 44.5493 72.256 44.88C72.9067 45.2107 73.4187 45.664 73.792 46.24C74.176 46.816 74.4427 47.472 74.592 48.208L72.784 48.304C72.656 47.6107 72.368 47.0507 71.92 46.624C71.472 46.1867 70.8 45.968 69.904 45.968C69.1147 45.968 68.4693 46.1653 67.968 46.56C67.4667 46.9547 67.0933 47.4827 66.848 48.144C66.6133 48.8053 66.496 49.536 66.496 50.336C66.496 51.168 66.6133 51.9093 66.848 52.56C67.0933 53.2107 67.4667 53.728 67.968 54.112C68.48 54.4853 69.1307 54.672 69.92 54.672C70.5387 54.672 71.072 54.5387 71.52 54.272C71.968 54.0053 72.3147 53.6427 72.56 53.184C72.816 52.7253 72.9547 52.2187 72.976 51.664H69.936V50.208H74.624V56H73.44L73.328 53.44L73.552 53.632C73.4347 54.144 73.1947 54.5973 72.832 54.992C72.4693 55.3867 72.0267 55.696 71.504 55.92C70.992 56.144 70.4373 56.256 69.84 56.256ZM80.2665 56.192C79.4345 56.192 78.7145 56.0107 78.1065 55.648C77.5092 55.2853 77.0452 54.768 76.7145 54.096C76.3945 53.424 76.2345 52.64 76.2345 51.744C76.2345 50.848 76.3945 50.0693 76.7145 49.408C77.0452 48.736 77.5092 48.2187 78.1065 47.856C78.7038 47.4827 79.4078 47.296 80.2185 47.296C80.9865 47.296 81.6638 47.4773 82.2505 47.84C82.8372 48.192 83.2905 48.704 83.6105 49.376C83.9412 50.048 84.1065 50.8587 84.1065 51.808V52.24H77.9945C78.0372 53.072 78.2558 53.696 78.6505 54.112C79.0558 54.528 79.5998 54.736 80.2825 54.736C80.7838 54.736 81.1998 54.6187 81.5305 54.384C81.8612 54.1493 82.0905 53.8347 82.2185 53.44L83.9785 53.552C83.7545 54.3413 83.3118 54.9813 82.6505 55.472C81.9998 55.952 81.2052 56.192 80.2665 56.192ZM77.9945 50.96H82.3145C82.2612 50.2027 82.0425 49.6427 81.6585 49.28C81.2852 48.9173 80.8052 48.736 80.2185 48.736C79.6105 48.736 79.1092 48.928 78.7145 49.312C78.3305 49.6853 78.0905 50.2347 77.9945 50.96ZM88.7765 56C87.9658 56 87.3685 55.8133 86.9845 55.44C86.6005 55.0667 86.4085 54.4853 86.4085 53.696V45.488H88.1045V53.568C88.1045 53.9627 88.1898 54.2347 88.3605 54.384C88.5312 54.5333 88.7925 54.608 89.1445 54.608H90.3605V56H88.7765ZM85.1125 48.88V47.488H90.3605V48.88H85.1125ZM95.9656 56V47.488H97.6616V56H95.9656ZM95.9336 46.256V44.56H97.6936V46.256H95.9336ZM100.2 56V47.488H101.752L101.816 49.76L101.608 49.648C101.704 49.0933 101.885 48.6453 102.152 48.304C102.419 47.9627 102.744 47.712 103.128 47.552C103.512 47.3813 103.928 47.296 104.376 47.296C105.016 47.296 105.544 47.44 105.96 47.728C106.387 48.0053 106.707 48.3893 106.92 48.88C107.144 49.36 107.256 49.9093 107.256 50.528V56H105.56V51.04C105.56 50.5387 105.507 50.1173 105.4 49.776C105.293 49.4347 105.117 49.1733 104.872 48.992C104.627 48.8107 104.307 48.72 103.912 48.72C103.315 48.72 102.829 48.9173 102.456 49.312C102.083 49.7067 101.896 50.2827 101.896 51.04V56H100.2ZM116.808 56C115.997 56 115.4 55.8133 115.016 55.44C114.632 55.0667 114.44 54.4853 114.44 53.696V45.488H116.136V53.568C116.136 53.9627 116.221 54.2347 116.392 54.384C116.562 54.5333 116.824 54.608 117.176 54.608H118.392V56H116.808ZM113.144 48.88V47.488H118.392V48.88H113.144ZM123.376 56.192C122.565 56.192 121.856 56.0107 121.248 55.648C120.64 55.2853 120.171 54.768 119.84 54.096C119.509 53.424 119.344 52.64 119.344 51.744C119.344 50.8373 119.509 50.0533 119.84 49.392C120.171 48.7307 120.64 48.2187 121.248 47.856C121.856 47.4827 122.565 47.296 123.376 47.296C124.187 47.296 124.896 47.4827 125.504 47.856C126.112 48.2187 126.581 48.7307 126.912 49.392C127.243 50.0533 127.408 50.8373 127.408 51.744C127.408 52.64 127.243 53.424 126.912 54.096C126.581 54.768 126.112 55.2853 125.504 55.648C124.896 56.0107 124.187 56.192 123.376 56.192ZM123.376 54.72C124.101 54.72 124.661 54.4587 125.056 53.936C125.451 53.4027 125.648 52.672 125.648 51.744C125.648 50.816 125.451 50.0907 125.056 49.568C124.661 49.0347 124.101 48.768 123.376 48.768C122.661 48.768 122.101 49.0347 121.696 49.568C121.301 50.0907 121.104 50.816 121.104 51.744C121.104 52.672 121.301 53.4027 121.696 53.936C122.101 54.4587 122.661 54.72 123.376 54.72ZM131.922 56.192C131.069 56.192 130.386 55.9093 129.874 55.344C129.373 54.768 129.122 53.9733 129.122 52.96V47.488H130.818V52.528C130.818 53.296 130.951 53.8613 131.218 54.224C131.485 54.5867 131.89 54.768 132.434 54.768C133.053 54.768 133.533 54.5707 133.874 54.176C134.226 53.7707 134.402 53.2053 134.402 52.48V47.488H136.098V56H134.514L134.482 53.776L134.722 53.872C134.573 54.6187 134.258 55.1947 133.778 55.6C133.298 55.9947 132.679 56.192 131.922 56.192ZM141.845 56.192C141.034 56.192 140.325 56.0107 139.717 55.648C139.109 55.2853 138.639 54.768 138.309 54.096C137.978 53.424 137.813 52.64 137.813 51.744C137.813 50.848 137.978 50.0693 138.309 49.408C138.639 48.736 139.109 48.2187 139.717 47.856C140.325 47.4827 141.034 47.296 141.845 47.296C142.538 47.296 143.151 47.4187 143.685 47.664C144.229 47.8987 144.666 48.2453 144.997 48.704C145.338 49.1627 145.557 49.7227 145.653 50.384L143.877 50.48C143.791 49.9253 143.567 49.504 143.205 49.216C142.842 48.9173 142.389 48.768 141.845 48.768C141.13 48.768 140.57 49.0347 140.165 49.568C139.77 50.0907 139.573 50.816 139.573 51.744C139.573 52.672 139.77 53.4027 140.165 53.936C140.57 54.4587 141.13 54.72 141.845 54.72C142.389 54.72 142.842 54.5707 143.205 54.272C143.567 53.9627 143.791 53.4987 143.877 52.88L145.653 52.976C145.557 53.6267 145.338 54.192 144.997 54.672C144.666 55.152 144.229 55.5253 143.685 55.792C143.151 56.0587 142.538 56.192 141.845 56.192ZM147.2 56V44.64H148.896V49.408L148.688 49.376C148.784 48.896 148.96 48.5067 149.216 48.208C149.472 47.8987 149.787 47.6693 150.16 47.52C150.533 47.3707 150.944 47.296 151.392 47.296C152.011 47.296 152.533 47.4347 152.96 47.712C153.387 47.9787 153.707 48.3573 153.92 48.848C154.144 49.3387 154.256 49.8987 154.256 50.528V56H152.56V50.976C152.56 50.208 152.427 49.6427 152.16 49.28C151.904 48.9067 151.499 48.72 150.944 48.72C150.325 48.72 149.829 48.9173 149.456 49.312C149.083 49.696 148.896 50.2613 148.896 51.008V56H147.2Z" fill="url(#paint5_linear_168_71)"/>
<defs>
<filter id="filter0_f_168_71" x="0" y="0" width="220" height="118" filterUnits="userSpaceOnUse" color-interpolation-filters="sRGB">
<feFlood flood-opacity="0" result="BackgroundImageFix"/>
<feBlend mode="normal" in="SourceGraphic" in2="BackgroundImageFix" result="shape"/>
<feGaussianBlur stdDeviation="17.5" result="effect1_foregroundBlur_168_71"/>
</filter>
<linearGradient id="paint0_linear_168_71" x1="35" y1="59.133" x2="185" y2="58.867" gradientUnits="userSpaceOnUse">
<stop stop-color="#5F837D" stop-opacity="0.2"/>
<stop offset="1" stop-color="#ABC9C4"/>
</linearGradient>
<linearGradient id="paint1_linear_168_71" x1="110.018" y1="51" x2="109.982" y2="67" gradientUnits="userSpaceOnUse">
<stop stop-color="#252424"/>
<stop offset="1" stop-color="#3C3C3C"/>
</linearGradient>
<linearGradient id="paint2_linear_168_71" x1="109.789" y1="23" x2="110.3" y2="77.9992" gradientUnits="userSpaceOnUse">
<stop stop-color="#C9C9C9"/>
<stop offset="0.5" stop-color="#686A69"/>
<stop offset="1" stop-color="#ABC9C4"/>
</linearGradient>
<linearGradient id="paint3_linear_168_71" x1="110" y1="24" x2="110" y2="77" gradientUnits="userSpaceOnUse">
<stop stop-color="#D5D8D8"/>
<stop offset="1" stop-color="#818C8A"/>
</linearGradient>
<linearGradient id="paint4_linear_168_71" x1="110" y1="24" x2="110" y2="77" gradientUnits="userSpaceOnUse">
<stop stop-color="#F4F4F4"/>
<stop offset="0.5" stop-color="#565656"/>
<stop offset="1" stop-color="#93B3AE"/>
</linearGradient>
<linearGradient id="paint5_linear_168_71" x1="110.024" y1="40" x2="109.978" y2="61" gradientUnits="userSpaceOnUse">
<stop stop-color="#252424"/>
<stop offset="1" stop-color="#3C3C3C"/>
</linearGradient>
</defs>
</svg>
